<?xml version="1.0" encoding="utf-8"?>
<!-- Generator: Adobe Illustrator 22.0.1, SVG Export Plug-In . SVG Version: 6.00 Build 0)  -->
<svg version="1.1" id="copy_x5F_180130" xmlns="http://www.w3.org/2000/svg" xmlns:xlink="http://www.w3.org/1999/xlink" x="0px"
	 y="0px" viewBox="0 0 800 335" style="enable-background:new 0 0 800 335;" xml:space="preserve">
<style type="text/css">
	.st0{fill:#FFFFFF;}
	.st1{fill:#D7000F;}
	.st2{fill:#FFF100;}
	.st3{fill:#659E31;}
</style>
<g>
	<g>
		<path class="st0" d="M12.2,59c-6.7,0-9,0.2-9.5,0.2c-0.7,0-0.8-0.1-0.8-0.8v-5.7c0-0.8,0.1-0.9,0.8-0.9c0.5,0,2.8,0.2,9.5,0.2h5.2
			v-7.5h-3.2c-6.2,0-8.3,0.2-8.8,0.2c-0.8,0-0.9-0.1-0.9-0.9v-5.6c0-0.8,0.1-0.9,0.9-0.9c0.5,0,2.6,0.2,8.8,0.2h3.2
			c0-5-0.1-7.1-0.5-10.2c2.8,0.1,5.4,0.2,7.8,0.5c0.8,0.2,1.2,0.4,1.2,0.9c0,0.4-0.2,0.8-0.4,1.3c-0.2,0.8-0.4,2.3-0.4,5.9v1.6h1.2
			c6.3,0,8.2-0.2,8.7-0.2c0.9,0,0.9,0.1,0.9,0.9v5.6c0,0.8-0.1,0.9-0.9,0.9c-0.5,0-2.4-0.2-8.7-0.2H25v7.5h2.2c6.7,0,9-0.2,9.5-0.2
			c0.8,0,0.9,0.1,0.9,0.9v5.7c0,0.7-0.1,0.8-0.9,0.8c-0.5,0-2.8-0.2-9.5-0.2h-1.7v8.6h4.7c3.5,0,4.9-0.2,5.4-0.2
			c0.8,0,0.9,0.1,0.9,0.9V74c0,0.7-0.1,0.8-0.9,0.8c-0.5,0-1.9-0.2-5.4-0.2h-4.7v11.8c4.6,1.9,10.4,2.7,18.6,2.7
			c10.5,0,19.8-0.5,29.7-1.8c-1,1.4-1.8,4-2.3,6.1C71,95.9,71,95.9,68.6,96c-8.1,0.6-15.1,0.8-24,0.8c-10.6,0-18.1-1.3-23.7-4.6
			c-4.3-2.5-7.2-5.1-9.9-9.6c-1.1,4.7-2.6,9.2-4.3,12.7c-0.6,1.3-1,1.9-1.5,1.9c-0.4,0-0.8-0.5-1.4-1.5c-1.2-1.8-2.3-3-3.9-4.2
			c4-6.8,6.1-15.4,6.4-24c0.1-1.6,0.1-3.4-0.1-5c2,0.2,4.7,0.7,6.5,1.1c0.9,0.2,1.3,0.5,1.3,0.9c0,0.4-0.2,0.8-0.4,1.2
			c-0.3,0.6-0.4,1.7-0.5,3c-0.2,2-0.4,4.1-0.7,6.2c1.6,2.7,3.4,5,5.7,6.9V59H12.2z M48.4,39.1c-5.9,0-7.7,0.2-8.2,0.2
			c-0.8,0-0.9-0.1-0.9-0.9v-5.6c0-0.8,0.1-0.9,0.9-0.9c0.5,0,2.3,0.2,8.2,0.2h11.3c4.7,0,6.7-0.2,7.1-0.2c0.9,0,0.9,0.1,0.9,0.9
			c0,0.5-0.2,2.7-0.2,7.6v10.4c0,4.9,0.2,7.1,0.2,7.6c0,0.7-0.1,0.8-0.9,0.8c-0.5,0-2.4-0.2-7.1-0.2H48.4v14.1c0,1.6,0,2.5,0.5,3
			c0.9,0.8,2.7,1,6.6,1c3.5,0,5.6-0.2,6.8-1.4c1-1,1.5-3.1,1.6-8.2c1.6,0.9,3.4,1.7,5.2,2.2c2.4,0.6,2.4,0.6,2.3,3.1
			c-0.5,4.8-1.7,7.5-3.6,9.1c-2,1.8-5.1,2.7-12.9,2.7c-7.8,0-11-0.7-12.5-2c-1.6-1.2-1.9-2.9-1.9-6.1V60.3c0-4.7-0.2-7-0.2-7.5
			c0-0.9,0.1-0.9,0.9-0.9c0.5,0,2.5,0.2,6.8,0.2h11.7v-13H48.4z"/>
		<path class="st0" d="M132.7,79.2c-7,0-9.3,0.2-9.8,0.2c-0.9,0-0.9-0.1-0.9-0.9V74c0-0.9,0.1-0.9,0.9-0.9c0.5,0,2.8,0.2,9.8,0.2
			h19.2V69h-10.9c-7.5,0-10.2,0.2-10.7,0.2c-0.8,0-0.8-0.1-0.8-0.9v-4.4c0-0.9,0-0.9,0.8-0.9c0.5,0,3.2,0.2,10.7,0.2h10.9V59h-14.6
			c-7.5,0-9.9,0.2-10.4,0.2c-0.9,0-0.9-0.1-0.9-0.8v-4.6c0-0.8,0.1-0.9,0.9-0.9c0.5,0,3,0.2,10.4,0.2h4.7c-0.9-1.9-1.6-3.4-2.5-4.9
			c-0.4-0.7-0.5-1,0.5-1.3l5-1.4h-12.4c-7,0-9.3,0.2-9.8,0.2c-0.9,0-0.9-0.1-0.9-0.9V40c0-0.9,0.1-0.9,0.9-0.9
			c0.5,0,2.8,0.2,9.8,0.2h0.5c-1.2-2.5-2.6-4.4-4.4-6.7c-0.5-0.5-0.3-0.9,0.6-1.3l4.5-2.1c0.8-0.4,1-0.3,1.5,0.3
			c1.9,2.3,3.8,4.9,5.2,7.5c0.4,0.7,0.4,0.8-0.6,1.3l-1.9,0.9h7.2v-5.1c0-2.7,0-4.6-0.5-6.8c2.4,0.1,5.4,0.2,7.5,0.5
			c0.6,0.1,0.9,0.3,0.9,0.7c0,0.5-0.2,0.9-0.3,1.3c-0.2,0.5-0.5,1.7-0.5,4.3v5.1h6.3v-5c0-2.8,0-4.7-0.5-6.8
			c2.3,0.1,5.4,0.2,7.5,0.5c0.7,0.1,1,0.3,1,0.7c0,0.4-0.2,0.9-0.3,1.2c-0.2,0.5-0.5,1.7-0.5,4.3v5.1h4.8c1.4-2.2,2.5-4.1,3.6-6.4
			c0.5-1.2,1-2.3,1.3-4.2c2.7,0.5,5.4,1.3,7.5,2c0.7,0.2,1,0.6,1,1c0,0.6-0.3,0.9-0.8,1.3c-0.5,0.5-0.9,0.9-1.3,1.5
			c-1,1.6-2.1,3.2-3.2,4.7h1.1c7,0,9.3-0.2,9.8-0.2c0.8,0,0.9,0.1,0.9,0.9v4.8c0,0.8-0.1,0.9-0.9,0.9c-0.5,0-2.8-0.2-9.8-0.2h-13.6
			c2,0.4,3.8,0.8,6.1,1.4c0.6,0.2,1,0.5,1,0.9c0,0.5-0.4,0.9-0.9,1.2c-0.4,0.2-0.8,1.1-1.1,1.6l-1.4,2.5h5c7.5,0,9.9-0.2,10.4-0.2
			c0.8,0,0.9,0.1,0.9,0.9v4.6c0,0.7-0.1,0.8-0.9,0.8c-0.5,0-2.9-0.2-10.4-0.2h-15.7v4.1H172c7.6,0,10.2-0.2,10.7-0.2
			c0.8,0,0.9,0.1,0.9,0.9v4.4c0,0.8-0.1,0.9-0.9,0.9c-0.5,0-3.1-0.2-10.7-0.2h-12.3v4.2h20.4c7,0,9.3-0.2,9.8-0.2
			c0.8,0,0.9,0.1,0.9,0.9v4.6c0,0.8-0.1,0.9-0.9,0.9c-0.5,0-2.8-0.2-9.8-0.2h-13.8c6.5,4.6,14.7,7.6,25.9,10.1c-1,1.2-2.1,2.9-3,5
			c-0.6,1.5-0.9,2-1.7,2c-0.4,0-0.9-0.2-1.8-0.4c-10.5-3-19.7-8.2-26.1-13.9c0,9.2,0.4,14.1,0.4,15.4c0,0.8-0.1,0.9-0.9,0.9h-6.6
			c-0.7,0-0.8-0.1-0.8-0.9c0-1.3,0.2-5.8,0.3-15.1c-6.5,6.2-14.6,10.6-24.9,13.9c-0.9,0.3-1.4,0.5-1.8,0.5c-0.7,0-1-0.5-1.7-2
			c-1-2-2.1-3.6-3.1-4.7c10.3-2.6,18.2-5.7,24.8-10.8L132.7,79.2L132.7,79.2z M162.6,53.1c0.7-1.3,1.3-2.6,2.1-4.5
			c0.4-0.9,0.5-1.6,0.9-3.1h-19.8c0.2,0.1,0.4,0.3,0.6,0.6c1.2,1.9,2.4,4.3,3.5,7H162.6z"/>
		<path class="st0" d="M278.9,44.6c-1.8,13.2-5,25.3-9.7,33.5c-3.3,5.8-7.4,8.9-13.2,8.9c-6.8,0-13.7-7.3-13.7-20
			c0-7.5,3.2-14.6,8.8-20.2c6.5-6.5,14.7-9.9,25.2-9.9c18.6,0,29.6,11.5,29.6,26.9c0,14.4-8.2,23.5-23.9,28.3
			c-1.6,0.5-2.3,0.2-3.3-1.4c-0.9-1.3-2.5-3.1-5.4-4.9c13.1-3.1,23.4-8.5,23.4-23.2c0-9.2-7-18-17.4-18H278.9z M256.6,52.2
			c-3.7,4.2-6.1,9.4-6.1,14.4c0,7.1,2.9,11.1,5.3,11.1c2,0,3.7-1,5.8-4.7c3.4-6.3,6.9-17.5,8.2-27.8
			C264.5,46.2,260.1,48.4,256.6,52.2z"/>
		<path class="st0" d="M368.3,56c6.8-2.2,13.1-4.7,19.3-7.5c4.2-2,6.1-3.3,8.3-5.6c2.7,2.3,5.3,5.4,6.4,7c0.9,1.1,0.9,2.4-0.7,2.8
			c-2.2,0.5-4.3,1.6-6.4,2.6c-7.7,3.5-16.8,6.7-27,9.6v10.3c0,3.6,0.5,4.9,2.6,5.5c2,0.5,5,0.9,9.8,0.9c7.3,0,13.8-0.5,21.9-1.8
			c1.2-0.2,1.3,0.2,1.4,1.1c0.2,2.2,0.5,5.1,0.5,6.8c0,1-0.5,1.3-1.6,1.4c-8.8,1.1-13.3,1.4-23.1,1.4c-6.9,0-11.5-0.7-14.8-2.1
			c-3.9-1.6-5.5-5.3-5.5-11.6V48c0-7.4-0.2-10.3-0.8-14.2c3.6,0.4,7.3,0.9,9.8,1.6c1.7,0.4,1.4,1.7,0.7,2.9c-0.6,1.2-0.8,3.3-0.8,7
			L368.3,56L368.3,56z"/>
		<path class="st0" d="M463.9,37.8c0.3-0.4,0.7-0.6,1.1-0.6c0.3,0,0.6,0.2,1,0.4c4,2.1,10.4,6.8,14.8,11c0.5,0.5,0.7,0.8,0.7,1.1
			c0,0.3-0.2,0.6-0.5,1c-1.2,1.6-3.7,4.7-4.8,5.8c-0.4,0.4-0.6,0.6-0.9,0.6c-0.3,0-0.6-0.2-1-0.6c-4.7-4.8-10.2-9.2-15.8-12.7
			C460.1,41.8,462.4,39.3,463.9,37.8z M470.6,78.7c9.5-4.9,14.5-8.2,22.4-14.4c9.5-7.7,14.7-12.7,21.3-21.1c0.5,3.9,1.2,6.5,2.2,9.1
			c0.2,0.5,0.4,1,0.4,1.5c0,0.7-0.4,1.3-1.2,2.3c-4.1,4.8-10.8,11-17.9,16.5c-6.4,5-13,9.4-23.4,15.2c-3.5,2.1-4.5,2.9-5.2,3.6
			c-0.5,0.5-0.9,0.8-1.4,0.8c-0.4,0-0.9-0.3-1.3-0.9c-1.9-2.2-4.3-5.4-6.2-8.6C464.1,81.5,466.5,80.8,470.6,78.7z"/>
		<path class="st0" d="M583.9,52.3c9.5,3,17,6,24.7,10.6c0.9,0.5,1.2,1,0.9,2c-1,2.6-2.3,5-3.3,6.8c-0.3,0.5-0.6,0.9-1,0.9
			c-0.2,0-0.5-0.1-0.9-0.4c-7.1-4.6-14.1-8-20.4-9.9v17.2c0,5,0.2,9.6,0.3,15.2c0.1,0.9-0.3,1.2-1.4,1.2c-2.3,0.2-4.7,0.2-6.9,0
			c-1.1,0-1.5-0.2-1.5-1.2c0.2-5.7,0.3-10.3,0.3-15.3V41.1c0-5.8-0.2-8.4-0.8-11.5c3.6,0.2,7.5,0.6,9.7,1.2c1.1,0.2,1.5,0.7,1.5,1.3
			c0,0.5-0.2,1.1-0.6,1.8c-0.5,1-0.5,3-0.5,7.3V52.3z"/>
		<path class="st0" d="M676.6,35.9c1.3,0.7,1.8,1.2,1.8,1.9c0,0.5-0.2,0.8-1.2,2.3c-0.8,1.4-1.2,2.5-1.9,5.5
			c-2.2,9.6-3.3,19.2-3.3,25.1c0,3.8,0.2,6.4,0.5,9.1c1.6-3.6,3-6.1,5.3-11.6c0.6,1.9,1.6,3.2,2.7,4.9c0.2,0.4,0.5,0.9,0.5,1.2
			c0,0.5-0.2,0.9-0.4,1.2c-1.8,4-3.3,7.4-4.4,11.7c-0.2,0.5-0.2,1.3-0.2,2.4c0,0.9,0.2,1.6,0.2,2.2c0,0.5-0.3,0.9-1,1
			c-1.9,0.5-4.1,1-6.4,1.2c-0.5,0.1-0.9-0.3-1-0.9c-2.2-5.4-3.6-15.3-3.6-23.1c0-7,0.9-15.4,2.6-25.5c1-5.7,1.4-8.3,1.4-11.6
			C671.8,33.9,674.2,34.7,676.6,35.9z M693.2,72.5c0.6-0.1,0.8,0.3,0.8,1.2c0.5,5.4,4.2,7.3,12.7,7.3c5.8,0,9.6-0.4,14.8-1
			c0.8-0.1,0.9,0,1.1,1c0.2,1.6,0.5,4.7,0.5,6.7c0,0.9,0,1-1.3,1.2c-5.3,0.6-9,0.9-12.7,0.9c-11.5,0-16.8-1.9-20.2-6.4
			c-1.9-2.5-2.7-6.4-2.7-10.1L693.2,72.5z M688.8,43.5c0.1-0.9,0.3-1.2,1.1-1.3c4.6-0.9,13.3-1.4,16.8-1.4c4.7,0,8.2,0.2,11.5,0.5
			c1.6,0.1,1.8,0.2,1.8,1c0,2.3,0,4.4-0.2,6.6c-0.1,0.7-0.3,1-1,0.9c-4.7-0.3-8.7-0.5-12.7-0.5c-5.2,0-10.2,0.5-17.6,1.8
			C688.7,46.7,688.7,44.8,688.8,43.5z"/>
		<path class="st0" d="M774.7,78.7c0.5-0.5,0.9-0.6,1.2-0.6s0.5,0.1,1,0.5c5.7,3.6,10.9,8.2,15.4,14.2c0.5,0.6,0.5,0.9,0.5,1.2
			c0,0.4-0.2,0.7-0.8,1.2l-4.7,4c-0.5,0.5-0.9,0.7-1.1,0.7c-0.4,0-0.7-0.2-1.1-0.8c-4.1-6-9.4-11.3-14.7-14.8
			c-0.5-0.3-0.7-0.5-0.7-0.8c0-0.2,0.2-0.5,0.5-0.9L774.7,78.7z"/>
		<path class="st0" d="M56.4,178.8c0-4.4-0.1-6.8-0.4-9.9c2.9,0.1,5.4,0.2,8.1,0.5c0.8,0.1,1.2,0.4,1.2,0.9c0,0.5-0.2,1.1-0.4,1.6
			c-0.4,1-0.5,2.5-0.5,7.6v10.9c0,4.7,0.2,6.9,0.2,7.4c0,0.9-0.1,0.9-0.8,0.9h-6.4c-0.9,0-0.9-0.1-0.9-0.9v-2.9H40.5v23.9h18.4v-5.9
			c0-4.5-0.1-6.8-0.5-9.9c3,0.1,5.5,0.2,8.2,0.5c0.7,0.1,1.2,0.5,1.2,0.9c0,0.5-0.2,1.1-0.4,1.6c-0.4,1-0.5,2.5-0.5,7.6v9.4
			c0,4.3,0.2,6.4,0.2,6.8c0,0.7-0.1,0.8-0.9,0.8h-6.4c-0.8,0-0.9-0.1-0.9-0.8v-3.6H14.7v4c0,0.7-0.1,0.8-0.9,0.8H7.5
			c-0.9,0-0.9-0.1-0.9-0.8c0-0.5,0.2-2.5,0.2-6.8v-10.2c0-4.4-0.1-6.8-0.5-9.8c3,0.1,5.5,0.2,8.2,0.5c0.8,0.1,1.3,0.4,1.3,0.9
			c0,0.5-0.3,1.1-0.5,1.6c-0.4,0.9-0.5,2.5-0.5,6.8v5.7h17.5v-23.9h-15v3.2c0,0.8-0.1,0.9-0.9,0.9H9.9c-0.8,0-0.9-0.1-0.9-0.9
			c0-0.5,0.2-2.7,0.2-7.4v-11.6c0-4.5-0.1-6.8-0.5-9.9c2.9,0.1,5.5,0.2,8.2,0.5c0.8,0.1,1.2,0.5,1.2,0.9c0,0.5-0.2,0.9-0.4,1.6
			c-0.4,0.9-0.5,2.5-0.5,6.8v8.5h15v-17c0-4.6-0.2-7-0.5-10c2.9,0.1,5.8,0.3,8.5,0.6c0.7,0.1,1.2,0.3,1.2,0.8c0,0.5-0.2,0.9-0.5,1.6
			c-0.3,1-0.4,2.1-0.4,7.1v16.9h15.9L56.4,178.8L56.4,178.8z"/>
		<path class="st0" d="M142.1,184.9c-4.3,3.2-9.1,6-14.1,8.4c-0.9,0.5-1.5,0.7-1.9,0.7c-0.5,0-0.8-0.5-1.4-1.9
			c-0.9-1.9-2-3.6-3.5-5.1c13.5-5.4,23.6-13.6,29.8-22.6c1.3-1.9,2-3.3,2.7-5c3,0.4,5.9,0.9,8.4,1.6c0.9,0.2,1.4,0.5,1.4,1.1
			c0,0.5-0.2,0.9-0.8,1.2c-0.5,0.2-0.8,0.5-1.1,0.7c8.8,10.7,19.3,17.5,32.8,22.2c-1.5,1.9-2.5,3.7-3.3,5.8
			c-0.5,1.4-0.8,1.9-1.3,1.9c-0.4,0-0.9-0.2-1.8-0.6c-5.3-2.3-10.3-5-14.8-8.2v5.7c0,0.8-0.1,0.9-0.9,0.9c-0.5,0-2.6-0.2-8.8-0.2
			h-12c-6.2,0-8.3,0.2-8.8,0.2c-0.8,0-0.9-0.1-0.9-0.9V184.9z M137.1,205.9c-7.3,0-9.8,0.2-10.2,0.2c-0.9,0-0.9-0.1-0.9-0.9v-5.8
			c0-0.8,0.1-0.9,0.9-0.9c0.5,0,3,0.2,10.2,0.2h41.4c7.3,0,9.8-0.2,10.2-0.2c0.9,0,0.9,0.1,0.9,0.9v5.8c0,0.8-0.1,0.9-0.9,0.9
			c-0.5,0-2.9-0.2-10.2-0.2h-24c-1.9,4.8-4.3,9.7-6.9,14.6c8.1-0.5,16.5-1.2,23.9-1.9c-1.8-2.2-3.6-4.3-5.7-6.6
			c-0.5-0.6-0.5-0.9,0.5-1.4l5-2.6c0.9-0.5,1.1-0.4,1.6,0.2c5.3,5.5,9.7,11.1,14.4,18c0.4,0.6,0.4,0.9-0.4,1.5l-5.4,3.5
			c-0.5,0.3-0.7,0.5-0.9,0.5s-0.4-0.2-0.6-0.5c-1.3-2.2-2.6-4.2-3.9-6.1c-12.9,1.6-28.7,2.9-41.9,4c-1.2,0.1-2.3,0.4-2.8,0.7
			c-0.4,0.3-0.8,0.5-1.3,0.5c-0.5,0-0.9-0.4-1.1-1.1c-0.7-2.6-1.2-5.3-1.6-8c2.9,0.2,5.4,0.2,8.5,0c0.8,0,1.6-0.1,2.5-0.1
			c2.8-5.3,5-10.2,6.8-15.1L137.1,205.9L137.1,205.9z M163.6,184.3c5.2,0,7.5-0.1,8.4-0.2c-5.6-4-10.5-8.8-14.7-14.2
			c-4.1,5.4-8.9,10.2-14.2,14.2c0.7,0.1,2.9,0.2,8.5,0.2H163.6z"/>
		<path class="st0" d="M268.3,184.1c6-0.9,10.3-1.8,13.5-2.5c1.3-0.4,2.1-0.6,3.1-1.2c0.7-0.4,1-0.5,1.7-0.5c0.5,0,0.7,0.2,1.3,0.5
			c1.4,0.9,3.2,2.3,4.6,4.1c0.5,0.5,0.9,1.3,0.9,1.8c0,0.7-0.5,1.3-1.4,1.8c-1.1,0.5-1.6,1.1-2.5,1.8c-5.7,5.4-8.9,8.7-14.1,14.3
			c1-0.3,2-0.4,2.8-0.4c3.6,0,7.1,2.3,8.5,7.8c1.6,6.4,2.8,7.6,8.5,7.6c4.6,0,8.2-0.5,12-1.4c0.9-0.2,1.2,0.3,1.4,1.2
			c0.3,1.6,0.5,4.3,0.5,6.8c0,0.8-0.4,1.1-1.4,1.2c-3.4,0.6-7.7,1-11.4,1c-11.4,0-15.1-3-16.8-10.7c-1.2-5.3-2.2-7.5-4.9-7.5
			c-2,0-4.4,1.1-7.3,3.9c-3.5,3.6-9.2,10.4-11.8,13.7c-0.2,0.3-0.6,0.5-1.1,0.5c-0.2,0-0.5-0.1-0.9-0.3c-2-1.4-4-3.3-5.4-4.7
			c-0.2-0.2-0.4-0.5-0.4-0.8c0-0.4,0.2-0.9,0.6-1.2c5-5,9.7-9.9,14.7-14.9c3-3.1,7.1-7.6,15.4-16.5c-5.8,1.6-11,2.8-16.1,4.1
			c-2.4,0.7-3.6,1.1-4.2,1.4c-0.6,0.3-1.1,0.5-1.6,0.5s-0.9-0.4-1.3-1.3c-1-1.9-1.9-4.8-3.1-8.7
			C258.8,185.4,261.9,185.1,268.3,184.1z M290,167.4c0.8,0.2,1.1,0.6,0.9,1.7c-0.5,1.9-1.4,4.8-2.1,6.4c-0.2,0.6-0.7,1-1.3,0.9
			c-6.8-1.3-15.9-4-21.7-6.5c-0.5-0.2-0.9-0.5-0.7-1.4c0.5-1.8,1.5-4.3,2.6-7.2C275.5,164.1,282.5,166,290,167.4z"/>
		<path class="st0" d="M384.2,192.7c4.3-2.5,8-3.5,12.3-3.5c11.3,0,19.3,7.5,19.3,18.6c0,13-10.5,21.3-27.1,21.3
			c-9.8,0-15.7-4.2-15.7-11.4c0-5.2,4.9-9.5,10.9-9.5c7.3,0,12.7,3.9,14.6,11.3c5.4-2.5,7.9-5.9,7.9-11.8c0-7.1-5-11.7-12.2-11.7
			c-6.4,0-13.6,2.9-19.9,8.2c-2.3,2-4.4,4.3-6.8,6.6c-0.5,0.5-0.9,0.9-1.3,0.9c-0.3,0-0.7-0.2-1.2-0.7c-1.6-1.4-3.3-3.4-4.6-5
			c-0.5-0.6-0.2-1.2,0.4-1.8c6.1-4.9,11.4-9.9,18.4-17.2c4.8-5,8.5-8.8,12-13.3c-4.7,0.9-10.2,1.9-15,2.9c-1,0.2-2,0.5-3.3,0.9
			c-0.4,0.2-1.2,0.4-1.6,0.4c-0.8,0-1.3-0.4-1.7-1.3c-0.9-1.8-1.6-4-2.7-8.4c2.3,0.3,4.9,0.3,7.2,0.2c4.7-0.5,11.6-1.5,17.6-2.6
			c1.9-0.4,3.5-0.8,4.3-1.2c0.4-0.2,1.1-0.6,1.5-0.6c0.8,0,1.2,0.2,1.8,0.6c2.3,1.8,3.9,3.3,5.2,5c0.6,0.7,0.9,1.2,0.9,1.9
			c0,0.8-0.5,1.5-1.3,1.9c-1.3,0.6-1.9,1.2-3.4,2.5c-5.7,5.5-10.9,10.9-16.8,16.6L384.2,192.7z M384.3,214.9c-2.3,0-3.7,1.3-3.7,2.9
			c0,2.4,2.1,4,6.8,4c1.4,0,2.4-0.1,3.6-0.3C389.9,217.3,387.6,214.9,384.3,214.9z"/>
		<path class="st0" d="M486.9,203.2c2.1-1,4.3-2,6.4-3.2c-0.1,1.3-0.1,3.1-0.1,4.8c0.1,2.6,0.1,2.4-2,3.6c-4.5,2.5-9.3,4.8-14.3,6.7
			c-1.3,0.5-2.2,0.9-2.5,1.1c-0.5,0.4-0.9,0.7-1.4,0.7s-0.8-0.2-1.2-1c-0.8-1.9-1.4-4.1-2.1-6.9c2.6-0.5,4.9-1,7.7-1.9
			c0.5-0.2,1.2-0.4,1.8-0.6v-19.3h-0.6c-5.1,0-6.7,0.2-7.1,0.2c-0.7,0-0.8-0.1-0.8-0.9v-5.9c0-0.8,0.1-0.9,0.8-0.9
			c0.5,0,2,0.2,7.1,0.2h0.6v-6.7c0-5.5-0.1-7.9-0.6-11.7c3,0.1,5.4,0.2,7.9,0.5c0.8,0.1,1.2,0.5,1.2,0.9c0,0.5-0.2,1-0.5,1.6
			c-0.4,1-0.5,2.9-0.5,8.6v6.9c4.2,0,5.7-0.2,6.1-0.2c0.8,0,0.9,0.1,0.9,0.9v5.9c0,0.8-0.1,0.9-0.9,0.9c-0.5,0-1.9-0.2-6.1-0.2
			L486.9,203.2L486.9,203.2z M528.2,207.4c-3.9,9.2-10.1,16.5-19.1,22.5c-0.9,0.5-1.4,0.9-1.9,0.9c-0.5,0-1-0.5-1.9-1.5
			c-1.1-1.2-2.3-2.3-3.4-2.9c9.5-5.1,15.5-11.3,19.1-18.9h-4.2c-4.8,7.5-10.9,13.2-18.1,17.2c-0.9,0.5-1.5,0.9-1.9,0.9
			c-0.6,0-1-0.5-1.9-1.5c-0.9-1.1-2-1.9-3.3-2.7c7.3-3.4,13.1-8.2,17.3-13.9H504c-2.9,3.6-6.4,6.8-10.2,9.2c-1,0.6-1.5,1-1.9,1
			c-0.5,0-0.9-0.5-1.6-1.4c-1.1-1.3-2.4-2.4-3.7-3.3c6.1-3.3,10.9-7.6,14.4-12.7c0.7-1,1.2-2.1,1.6-3.3c-6.4,0-8.8,0.2-9.2,0.2
			c-0.8,0-0.9-0.1-0.9-0.9v-5c0-0.8,0.1-0.9,0.9-0.9c0.5,0,3,0.2,10.6,0.2h26c7.5,0,10.2-0.2,10.6-0.2c0.8,0,0.9,0.1,0.9,0.9v5
			c0,0.9-0.1,0.9-0.9,0.9c-0.4,0-3-0.2-10.6-0.2h-23.3l2.6,0.6c0.7,0.2,1.1,0.7,1.1,1c0,0.5-0.2,0.8-0.6,1c-0.4,0.3-0.8,0.5-1.2,1.4
			h20.3c6.6,0,8.8-0.2,9.3-0.2c0.9,0,1.1,0.2,1,1l-0.5,7.8c-0.4,6.7-1.1,11.4-2.4,14.9c-1.6,4.1-4,6-8.8,6c-1.5,0-2.6,0-4-0.2
			c-1.8-0.2-1.8-0.2-2.4-2.6c-0.5-1.9-1.2-3.6-2-5.1c2.9,0.5,5.3,0.5,7.1,0.5c1.7,0,2.3-0.2,3-2.4c0.6-2,1.4-5.5,2-13.4L528.2,207.4
			L528.2,207.4z M523.8,163c6.7,0,8.8-0.2,9.4-0.2c0.8,0,0.9,0.1,0.9,0.9c0,0.5-0.2,2.3-0.2,6.6v9.4c0,4.4,0.2,6.2,0.2,6.7
			c0,0.8-0.1,0.9-0.9,0.9c-0.5,0-2.7-0.2-9.4-0.2h-14.6c-6.8,0-8.9,0.2-9.5,0.2c-0.8,0-0.9-0.1-0.9-0.9c0-0.5,0.2-2.3,0.2-6.7v-9.4
			c0-4.3-0.2-6.1-0.2-6.6c0-0.8,0.1-0.9,0.9-0.9c0.5,0,2.7,0.2,9.5,0.2H523.8z M506.2,168.8v3.7h20.3v-3.7H506.2z M526.5,177.7
			h-20.3v3.8h20.3V177.7z"/>
		<path class="st0" d="M606.5,203.3c-0.5,10.3-2.2,18.2-6,25.6c-0.5,1-0.9,1.6-1.3,1.6c-0.4,0-0.9-0.5-1.6-1.2
			c-1.6-1.8-3.4-3.3-5-4.1c5.6-8.1,6.4-18.9,6.4-32.9c0-8.5-0.2-12.5-0.2-13c0-0.8,0.1-0.9,0.9-0.9c0.5,0,2.3,0.2,7.8,0.2h9.7
			c5.5,0,7.4-0.2,7.8-0.2c0.8,0,0.9,0.1,0.9,0.9c0,0.5-0.2,2.6-0.2,7.2v11.9c0,4.7,0.2,6.6,0.2,7.1c0,0.9-0.1,0.9-0.9,0.9h-6
			c-0.8,0-0.9-0.1-0.9-0.9v-2.1L606.5,203.3L606.5,203.3z M618.2,164.3c6.4,0,8.5-0.2,9-0.2c0.8,0,0.9,0.1,0.9,0.9v5.7
			c0,0.9-0.1,0.9-0.9,0.9c-0.5,0-2.6-0.2-9-0.2h-13c-6.4,0-8.5,0.2-9,0.2c-0.8,0-0.9-0.1-0.9-0.9V165c0-0.8,0.1-0.9,0.9-0.9
			c0.5,0,2.6,0.2,9,0.2L618.2,164.3L618.2,164.3z M606.8,185.4v10.9h11.4v-10.9H606.8z M639.1,192.7c-0.2,8.8-0.9,14.7-2.7,20.6
			c-1.9,6.1-5.1,11.2-9.5,15.8c-0.8,0.9-1.2,1.2-1.6,1.2c-0.4,0-0.8-0.4-1.6-1.3c-1.4-1.6-3.1-3.1-4.9-4.2c5-4.1,8.5-9.3,10.4-15.4
			c1.3-4.4,2.2-9.5,2.2-20.1v-9.5c0-4.7-0.2-8.5-0.5-12.7c2.7,0.5,5,1,7.4,1.9c4.7-1.1,10.7-3.2,15.1-5.5c1.8-0.9,2.8-1.6,4.1-2.7
			c1.8,1.5,3.6,3.5,5.1,5.5c0.5,0.5,0.6,0.9,0.6,1.6c0,0.5-0.5,0.8-1.2,0.9c-0.9,0.1-1.6,0.4-3,0.9c-6.6,2.7-13.3,5-19.8,6.4v9.5
			h14.2c7.6,0,10.2-0.2,10.6-0.2c0.8,0,0.9,0.1,0.9,0.9v5.7c0,0.8-0.1,0.9-0.9,0.9c-0.5,0-2.6-0.1-8.3-0.2v28.2
			c0,6.2,0.2,9.2,0.2,9.7c0,0.7-0.1,0.8-0.8,0.8h-6.4c-0.7,0-0.8-0.1-0.8-0.8c0-0.5,0.1-3.5,0.1-9.7v-28.2L639.1,192.7L639.1,192.7z
			"/>
	</g>
	<g>
		<path class="st1" d="M375.4,7.3c0-4,3.3-7.3,7.3-7.3s7.3,3.3,7.3,7.3s-3.3,7.3-7.3,7.3S375.4,11.3,375.4,7.3z"/>
		<path class="st1" d="M478.5,7.3c0-4,3.3-7.3,7.3-7.3s7.3,3.3,7.3,7.3s-3.3,7.3-7.3,7.3C481.7,14.6,478.5,11.3,478.5,7.3z"/>
		<path class="st1" d="M581.5,7.3c0-4,3.3-7.3,7.3-7.3s7.3,3.3,7.3,7.3s-3.3,7.3-7.3,7.3S581.5,11.3,581.5,7.3z"/>
	</g>
	<g>
		<g>
			<path class="st2" d="M759.6,149.5c-15.9,0-28.9,12.9-28.9,28.9c0,17.6,16.7,23.3,16.7,34.7h24.3c0-11.3,16.7-17,16.7-34.7
				C788.5,162.4,775.5,149.5,759.6,149.5z"/>
			<g>
				<path class="st2" d="M772.9,219.1c0,1.1-0.9,2-2,2h-22.5c-1.1,0-2-0.9-2-2l0,0c0-1.1,0.9-2,2-2h22.5
					C772,217,772.9,217.9,772.9,219.1L772.9,219.1z"/>
				<path class="st2" d="M772.9,226c0,1.1-0.9,2-2,2h-22.5c-1.1,0-2-0.9-2-2l0,0c0-1.1,0.9-2,2-2h22.5
					C772,224,772.9,224.9,772.9,226L772.9,226z"/>
				<path class="st2" d="M754.1,230.9c0.7,2.3,2.9,4,5.5,4s4.8-1.7,5.5-4H754.1z"/>
			</g>
			<g>
				<path class="st2" d="M800,177.8c0,0.3-0.2,0.6-0.6,0.6h-6.9c-0.3,0-0.6-0.3-0.6-0.6l0-1.3c0-0.3,0.2-0.6,0.5-0.6l6.9-0.5
					c0.3,0,0.6,0.2,0.6,0.5L800,177.8z M727.3,177.8c0,0.3-0.3,0.6-0.6,0.6h-6.9c-0.3,0-0.6-0.3-0.6-0.6l0.1-2
					c0-0.3,0.3-0.6,0.6-0.5l6.9,0.5c0.3,0,0.6,0.3,0.5,0.6L727.3,177.8z M788.4,162.3c-0.3,0.2-0.6,0.1-0.8-0.2l-0.7-1.2
					c-0.2-0.3-0.1-0.6,0.2-0.8l5.8-3.8c0.3-0.2,0.6-0.1,0.8,0.2l1.1,1.8c0.2,0.3,0.1,0.6-0.2,0.8L788.4,162.3z M731.7,162
					c-0.2,0.3-0.5,0.4-0.8,0.2l-6-3.4c-0.3-0.2-0.4-0.5-0.2-0.8l1.1-1.7c0.2-0.3,0.5-0.3,0.8-0.2l5.8,3.9c0.3,0.2,0.3,0.5,0.2,0.8
					L731.7,162z M776.9,150.3c-0.2,0.3-0.5,0.4-0.8,0.2l-1.2-0.7c-0.3-0.1-0.4-0.5-0.2-0.8l3.2-6.2c0.1-0.3,0.5-0.4,0.8-0.2l1.8,1
					c0.3,0.2,0.4,0.5,0.2,0.8L776.9,150.3z M743.2,150.5c-0.3,0.2-0.6,0.1-0.8-0.2l-3.6-5.9c-0.2-0.3-0.1-0.6,0.2-0.8l1.8-1
					c0.3-0.1,0.6,0,0.8,0.2l3.1,6.2c0.1,0.3,0,0.6-0.2,0.8L743.2,150.5z M760.9,145.4c0,0.3-0.3,0.6-0.6,0.6c0,0-0.3,0-0.8,0
					c-0.4,0-0.6,0-0.6,0c-0.3,0-0.6-0.2-0.6-0.6l-0.3-6.9c0-0.3,0.2-0.6,0.6-0.6c0,0,0.5,0,1,0c0.6,0,1.1,0,1.1,0
					c0.3,0,0.6,0.3,0.6,0.6L760.9,145.4z"/>
			</g>
		</g>
		<g>
			<path d="M758.1,184.7h3c0.3,0,0.6-0.2,0.6-0.6l0.8-16.7c0-0.2,0-0.3-0.2-0.4s-0.3-0.2-0.4-0.2h-4.6c-0.2,0-0.3,0.1-0.4,0.2
				s-0.2,0.3-0.2,0.4l0.8,16.7C757.5,184.5,757.8,184.7,758.1,184.7z"/>
			<path d="M759.6,187.6c-1.6,0-2.9,1.3-2.9,2.9s1.3,2.9,2.9,2.9s2.9-1.3,2.9-2.9S761.2,187.6,759.6,187.6z"/>
		</g>
	</g>
</g>
<g>
	<g>
		<rect x="235.4" y="280" class="st0" width="335.3" height="38"/>
	</g>
	<g>
		<rect x="232.4" y="277" class="st3" width="335.3" height="38"/>
	</g>
</g>
<g>
	<path class="st0" d="M278.9,303c0-0.2,0.1-1.5,0.1-2.6c-0.8,1.4-2.1,2.9-2.3,2.9c0,0,0,0-0.1-0.1c-0.4-0.4-2-1.2-2-1.2
		c1.7-1.1,3-2.6,3.7-3.7c-1.2,0-2.8,0.1-2.8,0.1v-1.9h3.3v-0.3c0,0,0-0.9-0.1-1.1c0.5,0,1.7,0.1,2.4,0.1c0.2,0,0.4,0.1,0.4,0.2
		c0,0.1-0.2,0.2-0.6,0.3c0,0.1,0,0.6,0,0.6v0.1h3.1v1.9c0,0-1.4,0-2.7-0.1c0.6,0.7,1.4,1.5,2.6,2.3c0,0-1.2,0.6-1.7,1.1
		c0,0-0.1,0.1-0.1,0.1c-0.1,0-0.9-1-1.4-1.8c0.1,1.2,0.2,2.8,0.2,3v2h-2.2L278.9,303z M275.4,293.2h2.1c-0.3-1.1-0.8-2-0.8-2
		l1.9-0.4c0,0,0.6,1.3,0.9,2.5h0.8c0.4-1.1,0.6-2.5,0.6-2.5s1.8,0.3,2.3,0.4c0.2,0.1,0.3,0.2,0.3,0.2c0,0.1-0.2,0.2-0.7,0.3
		c-0.1,0.3-0.3,1-0.5,1.5h2v1.8h-8.9V293.2z M275.8,288.8h3v-0.6c0,0,0-0.7-0.1-1.1c0.1,0,2.1,0.1,2.6,0.1c0.2,0,0.3,0.1,0.3,0.2
		c0,0.1-0.2,0.3-0.6,0.3c0,0.2,0,0.6,0,0.6v0.5h2.9v1.8h-8.2V288.8z M288.9,295.1h-1.8c0,3.3-0.2,7-3,9.6c0,0-0.1,0.1-0.1,0.1
		s-0.1,0-0.1,0c-0.5-0.3-2.5-0.9-2.5-0.9c3.2-2,3.5-5.1,3.5-8.2c0-0.6,0-1.2,0-1.8c0-2.3-0.1-5.2-0.1-5.2l2,0.3
		c2.1-0.5,3.9-1.3,4.4-1.7c0,0,1.3,1.4,1.7,1.8c0.1,0.1,0.2,0.2,0.2,0.3c0,0.1-0.1,0.2-0.2,0.2c-0.1,0-0.3,0-0.5-0.2
		c0,0-2.5,0.9-5.2,1.5c0,0.7,0,1.4,0,2.1h6.3v2.1h-2.3v9.9h-2.2V295.1z"/>
	<path class="st0" d="M297.6,294.4h3.1v-2h-2.6v-2h2.6c0-0.7,0-1.4,0-2c0-0.7,0-1,0-1.2c0,0,2,0.1,2.5,0.1c0.2,0,0.3,0.1,0.3,0.2
		c0,0.1-0.1,0.2-0.5,0.3c0,0.2,0,0.4,0,0.9c0,0.5,0,1.1,0,1.7h2.3v2h-2.3v2h2.5v2h-2.5c0.4,0.9,1.4,2.8,3.1,4.3c0,0-1.5,0.6-2.1,1
		c0,0-0.1,0-0.1,0c-0.1,0-0.8-0.8-1.6-2.5c-1,3.7-3,5.2-3,5.2c0,0,0,0-0.1,0c-0.6-0.4-2.3-1-2.3-1c2.6-2,3.5-4.6,3.8-7h-3V294.4z
		 M305.8,287.8h8.4v11.5h-2c0,1.2,0,2.7,0,2.8c0,0.3,0.1,0.6,0.8,0.6c0.6,0,1-0.2,1-1.6c0-0.4,0-0.7,0-1c0,0,1.3,1.2,1.9,1.5
		c0.1,0,0.1,0.1,0.1,0.2c-0.2,2.4-0.9,3-3.2,3c-1.9,0-2.5-0.7-2.5-2.2c0,0,0-0.1,0-0.1l0-3.5h-0.8c-0.2,2.7-1.3,5.4-5.8,6.1
		c0,0-0.1,0-0.1,0c0,0-0.1,0-0.1-0.1c-0.4-0.6-1.9-1.7-1.9-1.7c4.6-0.5,5.6-1.9,5.8-4h-1.5V287.8z M312.1,291v-1.3h-4.2v1.3H312.1z
		 M312.1,294.1v-1.3h-4.2v1.3H312.1z M312.1,297.3v-1.5h-4.2v1.5H312.1z"/>
	<path class="st0" d="M325.6,291.5c1.1,0.5,2.6,1.3,4.1,2.2c1.1-1.8,2-3.7,2.7-5.5c0,0,2,0.8,2.8,1.3c0.2,0.1,0.3,0.2,0.3,0.3
		c0,0.2-0.2,0.3-0.5,0.3c-0.1,0-0.1,0-0.2,0c-0.8,1.7-1.8,3.4-3,5.2c1.2,1,2.4,1.9,3.3,2.9l-1.7,2.2c-0.1,0-0.1,0.1-0.1,0.1
		c0,0-0.1,0-0.1,0c-0.9-1.1-1.9-2.1-3-3c-3.8,4.8-7.7,6.5-7.8,6.5c0,0-0.1,0-0.2-0.1c-0.8-0.7-2.6-1.6-2.6-1.6
		c3.6-1.5,6.4-3.7,8.5-6.3c-1.4-1-2.9-1.9-4.3-2.5L325.6,291.5z"/>
	<path class="st0" d="M343.2,288.9c1.7,0.9,3.8,2.2,4.9,3.6l-1.9,2.2c0,0-0.1,0-0.1,0s-0.1,0-0.1-0.1c-1.2-1.8-3-3-4.7-4
		L343.2,288.9z M356.9,294.3c0,0,0,0.1,0,0.1c0,0,0,0.1-0.1,0.1c-3.7,4.4-7.2,7.1-12.7,9c0,0,0,0,0,0.1c0,0.3-0.1,0.5-0.2,0.5
		c-0.4,0-2.4-2.5-2.5-2.7c-0.1-0.1-0.1-0.1-0.1-0.2c0,0,0-0.1,0.2-0.1c7.1-1.2,11.7-6.2,14.3-9.8
		C355.8,291.3,356.5,293.6,356.9,294.3z"/>
	<path class="st0" d="M367.4,290.9c0.2,0.1,0.3,0.2,0.3,0.3c0,0.1-0.2,0.2-0.6,0.3c-1.9,8.2-4.7,11.5-4.9,11.5c0,0-0.1,0-0.1,0
		c-0.8-0.5-3-0.9-3-0.9c3.2-3.3,4.7-7.7,5.3-11.8C364.5,290.3,367,290.8,367.4,290.9z M374.5,302.7c0,0-0.1,0-0.1,0s-0.1,0-0.1-0.1
		c-1-4-2.6-7.6-5.2-11.5l2.4-1c2.1,2.9,4.9,8.2,5.7,11.6L374.5,302.7z M373.3,288.4c0.7,0.5,1.9,1.7,2.3,2.5l-1.4,0.9
		c-0.4-0.8-1.5-2.1-2.2-2.7L373.3,288.4z M375.5,287.2c0.6,0.4,1.9,1.6,2.3,2.3l-1.4,1c-0.4-0.7-1.5-2-2.2-2.5L375.5,287.2z"/>
	<path class="st0" d="M381.5,294.6h15.4v2.6h-15.4V294.6z"/>
	<path class="st0" d="M405.5,295.7c-1,0.7-1.8,1-1.9,1c0,0-0.1,0-0.1-0.1c-0.4-0.5-2-1.5-2-1.5c4.1-1.3,6.8-4.5,7.7-5.9l-3.9,0v-1.8
		h5.2c0.1,0,0.2-0.2,0.3-0.2c0.2,0,1.6,0.8,1.6,1c0,0.1-0.1,0.2-0.3,0.3c0.3,0.4,0.6,0.8,1,1.1c0.7-0.7,1.5-1.6,1.9-2.3
		c0,0,1.5,0.8,2,1.2c0.1,0.1,0.2,0.2,0.2,0.3s-0.1,0.1-0.2,0.1c-0.1,0-0.2,0-0.3,0c0,0-1.1,1.2-2.1,2.1c0.3,0.3,0.7,0.6,1.1,0.9
		c0.7-0.7,1.5-1.6,1.9-2.3c0,0,1.5,0.8,1.9,1.1c0.1,0.1,0.2,0.2,0.2,0.3s-0.1,0.1-0.3,0.1c-0.1,0-0.2,0-0.3,0c0,0-0.9,1-1.8,1.9
		c1.1,0.7,2.3,1.2,3.6,1.7c0,0-1.5,0.9-2.1,1.5c0,0.1-0.1,0.1-0.1,0.1c-0.2,0-1.7-0.9-1.8-1v5.2h-2.2v-0.4h-6.7v0.4h-2.2V295.7z
		 M402.3,302.5h5.2c-0.4-0.7-0.8-1.1-0.8-1.1l2.2-0.5c0,0,0.5,0.7,1,1.6h2.3c0.4-0.9,0.6-1.7,0.6-1.7s2,0.3,2.5,0.4
		c0.2,0.1,0.3,0.1,0.3,0.2c0,0.1-0.2,0.3-0.7,0.3c-0.1,0.2-0.2,0.4-0.4,0.8h5.3v2h-17.4V302.5z M404.3,289.1c0,0,1.3,0.8,2.6,2
		l-1.5,1.5c-1.1-1.3-2.5-2.2-2.5-2.2L404.3,289.1z M416.4,295.4c-0.9-0.6-1.7-1.2-2.5-1.9v0.8h-5.8v-0.6c-0.7,0.6-1.4,1.2-2.1,1.8
		H416.4z M414.4,298.7v-1.5h-6.7v1.5H414.4z M412.8,292.5c-0.7-0.8-1.4-1.5-1.9-2.2c-0.5,0.7-1.1,1.4-1.8,2.2H412.8z"/>
	<path class="st0" d="M427.5,296.7h-2.9v-1.9h2.9v-1.3h-1.1v-0.2c-0.5,0.5-0.6,0.6-0.6,0.6c0,0,0,0-0.1,0c-0.5-0.4-2-0.9-2-0.9
		c3-2.2,4.1-6,4.1-6s1.5,0.2,2,0.3c0.2,0,0.3,0.1,0.3,0.2c0,0.1-0.2,0.2-0.5,0.3c0.4,0.8,1.5,2.5,3.3,3.7v-1.2h5.5l0-0.9h-6v-1.8
		h8.2l-0.1,5.2h2v1.9h-4.6v0.1c0.1,0.6,0.4,1.5,0.8,2.5c0.7-0.6,1.6-1.4,2.4-2.2c0,0,1,1,1.5,1.5c0.1,0.1,0.2,0.3,0.2,0.3
		c0,0.1-0.1,0.1-0.2,0.1c-0.1,0-0.2,0-0.4-0.1c-0.9,0.8-2,1.5-2.7,1.9c0.8,1.3,1.9,2.7,3.5,3.6c0,0-1.5,0.7-2,1.2
		c0,0-0.1,0.1-0.1,0.1c0,0-1.7-1.2-2.9-4.5l0.1,1.7c0,0,0,0.7,0.1,1.3c0,0.1,0,0.2,0,0.2c0,2.2-1.3,2.6-3.1,2.6c-0.2,0-0.4,0-0.5,0
		c-0.1,0-0.2,0-0.2-0.1c-0.2-0.7-1.3-2.2-1.3-2.2c0.6,0.1,1.3,0.2,1.8,0.2c0.7,0,1.2-0.2,1.2-0.9c0-0.6,0-5.2,0-7.4h-4.3v-1.9h6.8
		l0-0.9h-5.5v-0.2c-0.4,0.2-1.3,0.8-1.6,1.1c0,0-0.1,0.1-0.1,0.1c0,0-0.3-0.2-0.4-0.3v0.9h-1.3v1.3h2.2v1.9h-2.2v4.7
		c0.8-0.2,1.5-0.4,1.9-0.6l-0.1-0.1c1.9-0.8,3.4-1.8,4-2.4c0,0,0.2,1.3,0.5,1.7c0,0.1,0.1,0.1,0.1,0.1c0,0.1-1.9,1.5-2.7,1.9
		c0,0.1,0.1,0.3,0.1,0.3c0,0.1,0,0.2-0.1,0.2c-0.2,0-0.2,0-1.4-1.4c0,0.4,0,1,0.1,1.3c0,0,0,0,0,0.1c0,0.2-3.2,1.1-6.4,1.9
		c0,0.4-0.1,0.6-0.2,0.6c-0.1,0-0.2-0.1-0.3-0.3c-0.3-0.6-1-2.3-1-2.3c1.3-0.2,2.5-0.4,3.6-0.7V296.7z M425.4,301.4
		c0-2-0.6-3.9-0.6-3.9l1.6-0.2c0,0,0.6,2.3,0.7,3.8L425.4,301.4z M430.1,291.7c-0.6-0.7-1-1.4-1.4-2c-0.3,0.6-0.7,1.3-1.1,2H430.1z
		 M430.3,297.2c0,0,1.2,0.1,1.8,0.3c0.1,0,0.3,0.1,0.3,0.2c0,0.1-0.2,0.2-0.6,0.3c0,0-0.4,2.3-0.7,2.3c0,0-0.1,0-0.1,0
		c-0.3-0.1-1.2-0.1-1.2-0.1C430.1,299.3,430.3,297.2,430.3,297.2z M433.1,295.1c0,0,1.8,1,2.5,2l-1.3,1.5c-0.8-1.4-2.4-2.2-2.4-2.2
		L433.1,295.1z"/>
	<path class="st0" d="M450.4,295.2h9.1c0.1,0,0.2-0.1,0.4-0.1c0.1,0,1.5,1,1.5,1.3c0,0.1-0.2,0.2-0.4,0.3c0,0-0.9,2-3.2,4.1
		c1.7,0.9,4.1,1.6,7.5,1.7c0,0-1.9,1.5-2.3,2.2c0,0.1-0.1,0.1-0.1,0.1c0,0,0,0-0.1,0c-3-0.4-5.2-1.3-6.9-2.5c-3.3,2.1-6.8,2.7-7,2.7
		c-0.1,0-0.1,0-0.1-0.1c-0.4-0.6-2.2-2-2.2-2c3.3-0.2,5.8-1.1,7.6-2.1c-1.5-1.4-2.3-2.9-2.7-3.7h-1V295.2z M447.3,292.1h3.6
		c-0.5-1-1.1-1.7-1.1-1.7l2.1-0.4c0,0,0.7,0.9,1.2,2.1h1.8c-0.3-1.2-0.9-2-0.9-2l2.1-0.2c0,0,0.6,1,0.9,2.2h1.2
		c0.4-0.7,0.9-1.6,1.1-2.6c0,0,2,0.3,2.4,0.5c0.2,0.1,0.3,0.2,0.3,0.3s-0.2,0.2-0.7,0.2c-0.2,0.5-0.6,1.1-0.9,1.6h3.7v5h-2.3v-3
		h-12.3v3h-2.3V292.1z M451.4,287.8c3.7,0,7.8-0.3,10.1-0.8c0,0,1,1.4,1.4,2c0.1,0.1,0.1,0.2,0.1,0.2c0,0.1-0.1,0.2-0.2,0.2
		c-0.2,0-0.4-0.1-0.7-0.4c-2.5,0.3-8.7,0.7-12.4,0.7c-0.2,0-0.3,0-0.5,0c-0.2,0-0.2-0.1-0.2-0.1c-0.1-0.6-1.3-2-1.3-2
		C448.8,287.8,450.1,287.8,451.4,287.8z M453.8,297.1c0.3,0.7,1,1.6,2.1,2.5c1.6-1.3,2.3-2.5,2.3-2.5H453.8z"/>
	<path class="st0" d="M471.8,297.6l0-2.5c-0.7,1.1-1.5,2.4-1.6,2.4c0,0-0.1,0-0.1-0.1c-0.4-0.7-1.7-1.8-1.7-1.8
		c2.1-2,4.1-5.9,4.8-8.8c0.4,0.1,2.8,0.6,2.8,1c0,0.1-0.2,0.2-0.5,0.2c0,0-0.1,0-0.1,0c-0.3,0.8-0.8,2-1.5,3.4
		c0.7,0.1,0.9,0.1,0.9,0.3c0,0.2-0.3,0.3-0.6,0.4c0,0.1,0,1,0,1l0,11.8l-2.4,0L471.8,297.6z M481.8,293.1h-6.9V291h6.9v-2.4
		c0,0,0-0.9-0.1-1.5c0,0,2,0.1,2.7,0.1c0.3,0,0.4,0.1,0.4,0.2c0,0.1-0.2,0.3-0.6,0.3c0,0.4,0,1,0,1v2.2h2.9v2.1h-2.9v6.9
		c0,1,0,1.7,0,1.9c0,0,0,0,0,0c0,2.4-1.9,3-4.1,3c-0.3,0-0.6,0-0.9,0c-0.1,0-0.2,0-0.2-0.1c-0.2-0.7-1.6-2.4-1.6-2.4
		c1,0.1,1.9,0.3,2.6,0.3c1,0,1.7-0.3,1.7-1V293.1z M477.2,294.2c0,0,2.2,2.3,3.3,4.5l-2.2,1.3c-0.9-2.2-3.1-4.8-3.1-4.8L477.2,294.2
		z"/>
	<path class="st0" d="M491.8,290.4h6.5v-2c0,0,0-0.1,0-0.2c0-0.3,0-0.8-0.1-1.4c2.4,0,3.2,0.1,3.2,0.4c0,0.2-0.3,0.3-0.6,0.4
		c0,0.4,0,1,0,1v1.8h6.8v9.4h-2.4v-1.2h-4.3v6.4h-2.5v-6.4h-4.1v1.3h-2.4V290.4z M498.3,296.5v-3.8h-4.1v3.8H498.3z M505.1,296.5
		v-3.8h-4.3v3.8H505.1z"/>
	<path class="st0" d="M516,301.1h3.5v3.5H516V301.1z M516.1,293.5v-5.8h3.2v5.8l-0.5,5.9h-2.1L516.1,293.5z"/>
</g>
<g>
	<g>
		<polygon class="st0" points="570.9,323.9 565.9,328.9 565.6,328.2 558.4,307.9 558,307.1 559,307.4 566.8,310.2 579.3,314.7 
			579.9,314.8 574.9,319.9 584.4,329.4 584.2,329.7 580.4,333.4 		"/>
		<path d="M558.8,307.8l7.9,2.8l12.4,4.4l0,0l0,0l-1.4,1.4l-3.4,3.4l9.5,9.5l0,0l0,0l-3.4,3.4l-9.5-9.5l-4.8,4.8l0,0l0,0l-2.2-6.2
			L558.8,307.8L558.8,307.8L558.8,307.8 M557.4,306.4l0.3,0.9l0.3,0.8l5,14.1l2.2,6.2l0.4,1.3l0,0l0,0l1-0.9l4.2-4.2l8.9,8.9
			l0.6,0.6l0.6-0.6l3.4-3.4l0.6-0.6l-0.6-0.6l-8.9-8.9l2.8-2.8l1.4-1.4l0.2-0.2l0.8-0.7l0,0l0,0l-0.5-0.2l-0.8-0.3l-12.4-4.4
			l-7.9-2.8l-1.1-0.4L557.4,306.4L557.4,306.4L557.4,306.4L557.4,306.4z"/>
	</g>
</g>
</svg>
